<?xml version="1.0" encoding="UTF-8"?>
<!DOCTYPE svg PUBLIC "-//W3C//DTD SVG 1.1//EN" "http://www.w3.org/Graphics/SVG/1.1/DTD/svg11.dtd">
<!-- Creator: CorelDRAW X6 -->
<svg xmlns="http://www.w3.org/2000/svg" xml:space="preserve" width="8.759mm" height="8.584mm" version="1.1" style="shape-rendering:geometricPrecision; text-rendering:geometricPrecision; image-rendering:optimizeQuality; fill-rule:evenodd; clip-rule:evenodd"
viewBox="0 0 876 858"
 xmlns:xlink="http://www.w3.org/1999/xlink">
 <defs>
  <style type="text/css">
   <![CDATA[
    .fil0 {fill:black;fill-rule:nonzero}
   ]]>
  </style>
 </defs>
 <g id="__x0023_Layer_x0020_2">
  <metadata id="CorelCorpID_0Corel-Layer"/>
  <g id="_700142672">
   <g>
    <g>
     <path class="fil0" d="M611 858c-13,0 -26,0 -39,0 -173,-20 -300,-101 -392,-204 -93,-103 -166,-236 -180,-414 0,-16 0,-32 0,-48 3,-32 19,-55 38,-74 23,-24 58,-54 89,-55 23,-1 63,16 79,38 14,19 21,56 27,84 7,28 21,69 17,96 -6,42 -62,60 -79,91 55,131 144,228 264,294 30,-16 56,-66 98,-67 15,0 34,7 50,12 17,5 31,12 46,17 25,9 69,22 84,43 15,22 24,57 21,79 -7,44 -79,92 -121,108z"/>
    </g>
   </g>
   <path class="fil0" d="M442 54c210,0 380,170 380,380l54 0c0,-240 -194,-434 -434,-434l0 54z"/>
   <path class="fil0" d="M442 329l0 55c28,0 50,22 50,50l55 0c0,-58 -47,-105 -105,-105z"/>
   <path class="fil0" d="M442 220c118,0 214,96 214,214l56 0c0,-149 -121,-270 -270,-270l0 56z"/>
  </g>
 </g>
</svg>
