<?xml version="1.0" encoding="UTF-8"?>
<!DOCTYPE svg PUBLIC "-//W3C//DTD SVG 1.1//EN" "http://www.w3.org/Graphics/SVG/1.1/DTD/svg11.dtd">
<!-- Creator: CorelDRAW X6 -->
<svg xmlns="http://www.w3.org/2000/svg" xml:space="preserve" width="11.2888mm" height="11.2888mm" version="1.1" style="shape-rendering:geometricPrecision; text-rendering:geometricPrecision; image-rendering:optimizeQuality; fill-rule:evenodd; clip-rule:evenodd"
viewBox="0 0 1129 1129"
 xmlns:xlink="http://www.w3.org/1999/xlink">
 <defs>
  <style type="text/css">
   <![CDATA[
    .fil0 {fill:#333333;fill-rule:nonzero}
   ]]>
  </style>
 </defs>
 <g id="__x0023_Layer_x0020_1">
  <metadata id="CorelCorpID_0Corel-Layer"/>
  <path class="fil0" d="M988 176l-847 0c-78,0 -141,63 -141,141l0 459c0,78 63,141 141,141l847 0c78,0 141,-63 141,-141l0 -459c0,-78 -63,-141 -141,-141zm-917 185l0 0 247 185 -247 185 0 -370zm988 414l0 0c0,39 -32,71 -71,71l-847 0c-39,0 -71,-32 -71,-71l276 -207 154 116c19,14 41,21 63,21 22,0 45,-7 63,-21l154 -116 276 207zm0 -44l0 0 -247 -185 247 -185 0 370zm-452 -76l0 0c-12,9 -27,14 -42,14 -15,0 -30,-5 -42,-14l-146 -109 -29 -22 -276 -207 0 0c0,-39 32,-71 71,-71l847 0c39,0 71,32 71,71l-452 339z"/>
 </g>
</svg>
